<?xml version="1.0" encoding="UTF-8"?>
<svg width="44px" height="44px" viewBox="0 0 44 44" version="1.1" xmlns="http://www.w3.org/2000/svg" xmlns:xlink="http://www.w3.org/1999/xlink">
    <!-- Generator: Sketch 43.2 (39069) - http://www.bohemiancoding.com/sketch -->
    <title>ic_ga_dark_filled</title>
    <desc>Created with Sketch.</desc>
    <defs></defs>
    <g id="Symbols" stroke="none" stroke-width="1" fill="none" fill-rule="evenodd">
        <g id="ic_ga_dark_filled" fill="#FFFFFF">
            <g id="Combined-Shape">
                <path d="M22,44 C9.8497355,44 0,34.1502645 0,22 C0,9.8497355 9.8497355,0 22,0 C34.1502645,0 44,9.8497355 44,22 C44,34.1502645 34.1502645,44 22,44 Z M16.4995144,13.078947 C14.2847793,13.4243725 12.38837,15.2056846 11.9007219,17.3866067 C11.5011214,19.05955 11.9074948,20.9018195 12.9843843,22.2428834 C14.0070908,23.5433089 15.6122658,24.3560749 17.264851,24.3967132 C18.930982,24.4644437 20.5903401,23.7465004 21.6943213,22.5002593 C22.7441193,21.3420677 23.2724047,19.7368549 23.1234011,18.1790535 C22.9879433,16.614479 22.1684236,15.1311811 20.9222118,14.1829541 C19.6827728,13.2211811 18.0437334,12.8147981 16.4995144,13.078947 Z M30.7903129,16.8786279 C30.2552546,17.0411811 29.8488812,17.5491599 29.8082439,18.111323 C29.7134234,18.9037698 30.4110311,19.6623514 31.2102321,19.6420322 C32.0162061,19.6758975 32.7205867,18.9173159 32.6325391,18.118096 C32.5986747,17.2375996 31.6233785,16.5806137 30.7903129,16.8786279 Z M26.1847475,18.8157202 C25.2568616,19.0730961 24.4847521,19.8316776 24.2273822,20.7595855 C23.9158293,21.7755429 24.240928,22.9472805 25.0265833,23.6584508 C25.9409235,24.5321742 27.4445051,24.6540891 28.4943031,23.963238 C29.2528668,23.4823515 29.7608336,22.6289472 29.801471,21.7281316 C29.862427,20.7595855 29.3950975,19.7842663 28.6026694,19.2356493 C27.9118346,18.7344436 26.9974944,18.5854365 26.1847475,18.8157202 Z M26.3066596,25.4126707 C24.6405285,25.7106848 23.4010896,27.4242664 23.6584595,29.0904367 C23.8345546,30.8446566 25.5887332,32.2195857 27.329366,31.9757559 C29.1512735,31.8267488 30.5735805,29.9709332 30.2484817,28.176075 C30.0249763,26.3541246 28.0947026,24.9995146 26.3066596,25.4126707 Z"></path>
            </g>
        </g>
    </g>
</svg>