<svg xmlns="http://www.w3.org/2000/svg" width="30" height="30" viewBox="0 0 30 30">
    <path fill="#FFF" fill-rule="evenodd" d="M15 30C6.716 30 0 23.285 0 15 0 6.717 6.716 0 15 0c8.284 0 15 6.717 15 15 0 8.285-6.716 15-15 15zm7.525-18.93a6.147 6.147 0 0 1-1.77.486A3.083 3.083 0 0 0 22.11 9.85a6.13 6.13 0 0 1-1.958.747A3.082 3.082 0 0 0 14.9 13.41a8.749 8.749 0 0 1-6.354-3.222 3.08 3.08 0 0 0-.417 1.551c0 1.07.544 2.013 1.371 2.566a3.082 3.082 0 0 1-1.397-.385v.038a3.083 3.083 0 0 0 2.474 3.023c-.26.072-.531.108-.813.108-.199 0-.393-.018-.58-.055a3.082 3.082 0 0 0 2.88 2.14 6.185 6.185 0 0 1-3.829 1.32c-.248 0-.494-.014-.735-.042a8.737 8.737 0 0 0 4.725 1.384c5.671 0 8.771-4.697 8.771-8.77a8.48 8.48 0 0 0-.009-.399 6.257 6.257 0 0 0 1.538-1.596z"/>
</svg>
