<svg xmlns="http://www.w3.org/2000/svg" width="30" height="30" viewBox="0 0 30 30">
    <path fill="#FFF" fill-rule="evenodd" d="M14.858 30c-8.284 0-15-6.716-15-15 0-8.284 6.716-15 15-15 8.284 0 15 6.716 15 15 0 8.284-6.716 15-15 15zm7.227-16.096h-1.809v-1.808h-1.455v1.808h-1.808v1.455h1.808v1.81h1.455v-1.81h1.81v-1.455zm-6.759 2.19c-.42-.296-1.222-1.019-1.222-1.444 0-.499.142-.743.891-1.329.769-.6 1.313-1.444 1.313-2.426 0-1.169-.521-2.307-1.498-2.683h1.473l1.04-.751h-4.646c-2.082 0-4.042 1.578-4.042 3.405 0 1.867 1.419 3.375 3.538 3.375.148 0 .29-.003.43-.013-.137.263-.236.56-.236.867 0 .52.28.94.633 1.284-.267 0-.525.008-.805.008-2.58 0-4.566 1.642-4.566 3.346 0 1.678 2.177 2.728 4.756 2.728 2.941 0 4.566-1.669 4.566-3.347 0-1.346-.397-2.151-1.625-3.02zm-2.48-2.327c-1.198-.036-2.335-1.338-2.542-2.91-.207-1.572.597-2.774 1.793-2.74 1.196.037 2.334 1.297 2.54 2.869.207 1.572-.596 2.818-1.792 2.781zm-.47 7.951c-1.783 0-3.07-1.128-3.07-2.483 0-1.33 1.596-2.436 3.38-2.417.416.005.804.072 1.156.185.966.674 1.661 1.053 1.857 1.822.037.155.058.314.058.478 0 1.357-.874 2.415-3.38 2.415z"/>
</svg>
