<?xml version="1.0" encoding="UTF-8"?>
<svg width="44px" height="44px" viewBox="0 0 44 44" version="1.1" xmlns="http://www.w3.org/2000/svg" xmlns:xlink="http://www.w3.org/1999/xlink">
    <!-- Generator: Sketch 46.2 (44496) - http://www.bohemiancoding.com/sketch -->
    <title>ic_shortlist_dark_filled</title>
    <desc>Created with Sketch.</desc>
    <defs></defs>
    <g id="Symbols" stroke="none" stroke-width="1" fill="none" fill-rule="evenodd">
        <g id="ic_shortlist_dark_filled" fill="#FFFFFF">
            <g id="ic_imessage_light">
                <path d="M22,44 C9.8497355,44 0,34.1502645 0,22 C0,9.8497355 9.8497355,0 22,0 C34.1502645,0 44,9.8497355 44,22 C44,34.1502645 34.1502645,44 22,44 Z M27.9781478,25.8367972 L24.1417866,30.33177 C24.0028915,29.4529852 23.592297,28.6583466 22.9600659,28.0577832 L16.1942869,21.6305637 C15.7319888,21.1915065 15.4593993,20.5887225 15.4267856,19.9322952 C15.3941679,19.2757892 15.6055682,18.6458447 16.0218523,18.1577901 C16.4376764,17.671049 17.0068581,17.3847019 17.6256601,17.3504829 C18.2437132,17.315743 18.838226,17.5379073 19.2993903,17.976227 L23.1378031,21.6224935 L23.2809501,21.6150029 L25.8418191,18.6144544 L25.8347047,18.4787195 L25.3791138,18.0460823 C25.1750768,17.8519916 25.0546794,17.5857402 25.0404089,17.2955836 C25.0259515,17.0051006 25.1194406,16.7267227 25.3034864,16.5112088 C25.4862493,16.2968203 25.7364259,16.1709067 26.0081576,16.1558453 C26.2821833,16.1400553 26.5392168,16.2366636 26.7437088,16.431016 L27.1991242,16.8638401 L27.3422882,16.8563656 L29.9031572,13.8558172 L29.896055,13.7200938 L26.0576619,10.073846 C24.5214612,8.61492486 22.1451909,8.74628657 20.7627885,10.3662303 L14.9607553,17.164305 C14.292342,17.947512 13.953029,18.9582955 14.0052406,20.0098275 C14.0574626,21.0613766 14.4952959,22.0295061 15.2380828,22.7348933 L22.0038519,29.1621035 C22.466095,29.6011084 22.738736,30.2040533 22.7713533,30.8603733 C22.8039763,31.5168076 22.5924976,32.1469002 22.1761231,32.6348619 C21.7606156,33.1216288 21.1912697,33.408152 20.5724787,33.4423703 C19.9553973,33.4761175 19.3589286,33.253672 18.8987208,32.8166 L16.0392316,30.0999473 L18.2398177,27.5215713 L18.2327176,27.3858491 L17.3218886,26.5205747 L17.1787427,26.5280604 L14.0968457,30.1387669 L14.1039467,30.2744951 L17.9425162,33.920743 C18.6352576,34.5788793 19.51765,34.9365457 20.4468812,34.9365457 C20.5152021,34.9365457 20.582174,34.9347291 20.6479189,34.93099 C21.6477727,34.8757238 22.5678482,34.4126717 23.2373769,33.62837 L29.0392457,26.8302812 C29.707658,26.0470754 30.046971,25.0362918 29.9947593,23.984759 C29.9425354,22.9331702 29.5048527,21.9650591 28.7622787,21.2597023 L26.9409765,19.5295287 L26.7978314,19.5370151 L25.9774856,20.498121 L25.9845874,20.6338501 L27.8060692,22.3640268 C28.2682235,22.8031085 28.5407797,23.4059171 28.5733908,24.0622922 C28.6058408,24.7188434 28.394398,25.3487824 27.9781478,25.8367972 Z M25.1014523,11.1781704 L27.9609382,13.8946381 L27.0983851,14.9051329 C26.7363168,14.7261474 26.3379891,14.6440607 25.9330697,14.6670395 C25.2797639,14.7033456 24.678821,15.0057601 24.2422382,15.5175081 C23.8062469,16.0283264 23.5849905,16.687365 23.6188603,17.3730412 C23.6400195,17.8015309 23.7599124,18.2114606 23.9682488,18.5727842 L23.1074999,19.5809826 L20.2556235,16.871925 C19.6222628,16.2703061 18.8231561,15.9208119 17.9765023,15.8678023 L21.8238622,11.3597428 C22.680931,10.3557866 24.1501126,10.2745746 25.1014523,11.1781704 Z" id="Combined-Shape"></path>
            </g>
        </g>
    </g>
</svg>