<?xml version="1.0" encoding="UTF-8"?>
<svg width="44px" height="44px" viewBox="0 0 44 44" version="1.1" xmlns="http://www.w3.org/2000/svg" xmlns:xlink="http://www.w3.org/1999/xlink">
    <!-- Generator: Sketch 46.2 (44496) - http://www.bohemiancoding.com/sketch -->
    <title>ic_score_light</title>
    <desc>Created with Sketch.</desc>
    <defs></defs>
    <g id="Symbols" stroke="none" stroke-width="1" fill="none" fill-rule="evenodd">
        <g id="ic_score_light">
            <g>
                <circle id="Combined-Shape" stroke="#768692" stroke-width="1.25" cx="22" cy="22" r="21.375"></circle>
                <g id="logo_score" transform="translate(9.000000, 14.500000)" fill="#768692">
                    <path d="M18.666393,0.0323881491 C16.9971866,0.0323881491 15.4639452,0.611048404 14.2346157,1.57647432 C15.5556147,3.18271613 16.3536185,5.253637 16.3536185,7.51260058 C16.3536185,9.77173924 15.5556147,11.8428352 14.2346157,13.4489019 C15.4639452,14.4143278 16.9971866,14.9929881 18.666393,14.9929881 C22.7017338,14.9929881 25.9731047,11.6439372 25.9731047,7.51260058 C25.9731047,3.381264 22.7017338,0.0323881491 18.666393,0.0323881491" id="Fill-6"></path>
                    <path d="M9.85294881,9.66336081 C9.25162403,10.400124 8.34792661,10.8695304 7.33648329,10.8695304 C5.52566794,10.8695304 4.0575872,9.36658952 4.0575872,7.51260058 C4.0575872,5.65878673 5.52566794,4.15584584 7.33648329,4.15584584 C8.34775559,4.15584584 9.25145301,4.62525224 9.85294881,5.36201543 L12.9442302,2.71996301 C11.6039053,1.07817868 9.590083,0.0323881491 7.33648329,0.0323881491 C3.3009715,0.0323881491 0.029600524,3.381264 0.029600524,7.51260058 C0.029600524,11.6439372 3.3009715,14.9929881 7.33648329,14.9929881 C9.590083,14.9929881 11.6040763,13.9471976 12.9442302,12.3052381 L9.85294881,9.66336081" id="Fill-7"></path>
                </g>
            </g>
        </g>
    </g>
</svg>