<?xml version="1.0" encoding="UTF-8"?>
<svg width="500px" height="143px" viewBox="0 0 500 143" version="1.1" xmlns="http://www.w3.org/2000/svg" xmlns:xlink="http://www.w3.org/1999/xlink">
    <!-- Generator: Sketch 46 (44423) - http://www.bohemiancoding.com/sketch -->
    <title>messenger-bot-overlay</title>
    <desc>Created with Sketch.</desc>
    <defs>
        <rect id="path-1" x="0" y="0" width="73" height="73" rx="36.5"></rect>
    </defs>
    <g id="Backgrounds" stroke="none" stroke-width="1" fill="none" fill-rule="evenodd">
        <g id="messenger-bot-bg" transform="translate(-1002.000000, -385.000000)">
            <g id="messenger-bot-overlay" transform="translate(1001.000000, 385.000000)">
                <g id="conversation-bubbles">
                    <g id="one" transform="translate(0.960000, 0.000000)">
                        <g id="Group-2">
                            <path d="M127.72,0 L260.2,0 L260.2,-2.84217094e-14 C277.166188,-1.64693459e-14 290.92,13.7538125 290.92,30.72 L290.92,30.72 L290.92,30.72 C290.92,47.6861875 277.166188,61.44 260.2,61.44 L104.68,61.44 L104.68,61.44 C100.438453,61.44 97,58.0015469 97,53.76 L97,30.72 L97,30.72 C97,13.7538125 110.753812,-3.98878927e-15 127.72,-7.10542736e-15 Z" id="Rectangle-2" fill="#F9FAFC"></path>
                            <text id="Hey-there!" font-family="TMSans-Bold, TM Sans" font-size="30.72" font-weight="bold" line-spacing="38.4" fill="#1B1725">
                                <tspan x="120.04" y="40.52">Hey there!</tspan>
                            </text>
                            <g id="Avatar" transform="translate(0.040000, 0.000000)">
                                <mask id="mask-2" fill="white">
                                    <use xlink:href="#path-1"></use>
                                </mask>
                                <g id="Rectangle-3">
                                    <use fill="#D8D8D8" fill-rule="evenodd" xlink:href="#path-1"></use>
                                    <rect stroke="#979797" stroke-width="1" x="0.5" y="0.5" width="72" height="72" rx="36"></rect>
                                </g>
                                <g id="1.5.0" stroke-width="1" fill-rule="evenodd" mask="url(#mask-2)">
                                    <polygon id="Fill-1" fill="#2EAEE4" points="0.0576315789 73 73 73 73 0.0384210526 0.0576315789 0.0384210526"></polygon>
                                    <path d="M36.5979737,70.6217368 C33.3763684,70.6217368 30.1240263,70.1626053 26.9177895,69.2232105 C20.9096974,67.4644868 15.5153816,64.1007237 11.3178816,59.495 C10.8885263,59.0253026 10.8193684,58.3298816 11.1459474,57.7843026 C11.4725263,57.2387237 12.1160789,56.9688158 12.7336974,57.1273026 C18.3268421,58.5344737 22.1180395,55.0688947 23.7029079,51.611 C23.3763289,49.3105395 22.9287237,46.5394211 22.3543289,43.1919868 C19.4007105,25.9678289 16.2511447,11.8586579 15.9620263,10.5686711 C15.7737632,9.97794737 15.9380132,9.29117105 16.4480526,8.91944737 C20.7070263,5.82847368 25.7065658,3.73548684 30.9078158,2.86717105 C31.4485921,2.77784211 31.9893684,2.99972368 32.3101842,3.44156579 C32.631,3.88340789 32.6751842,4.46740789 32.4235263,4.95247368 C32.2189342,5.34532895 32.0546842,5.75259211 31.9346184,6.16369737 C30.89725,9.70419737 32.9354868,13.4281579 36.4769474,14.4655263 C38.1914868,14.9698026 40.0011184,14.7728947 41.5686974,13.9151447 C43.1372368,13.0573947 44.2764211,11.6396579 44.7797368,9.92415789 C45.1802763,8.55348684 45.13225,7.11365789 44.6375789,5.76123684 C44.4512368,5.24831579 44.5693816,4.67296053 44.9449474,4.27626316 C45.3205132,3.87956579 45.8891447,3.73164474 46.4107105,3.88821053 C50.0722368,5.0005 53.4667368,6.67757895 56.5000789,8.87334211 C56.7968816,9.0885 57.0005132,9.40931579 57.0696711,9.76951316 C57.3443816,11.1997368 63.7923947,44.8258421 64.0248421,46.3434737 C64.0882368,46.6518026 65.7989342,55.5539605 59.6275526,61.5620526 C53.1785789,67.4875395 45.0045,70.6217368 36.5979737,70.6217368" id="Fill-3" fill="#1B1725"></path>
                                    <path d="M24.6038816,65.3618947 C25.6210789,65.7806842 26.66325,66.1466447 27.7275132,66.4578553 C38.3211579,69.5613158 49.5074474,66.9486842 57.6479079,59.4681053 C62.6762632,54.5723026 61.2037763,46.9217105 61.1874474,46.8458289 C61.0001447,45.6259605 56.6969868,23.1237105 54.3485,10.8798816 C52.3582895,9.49480263 50.2028684,8.34697368 47.9110526,7.45368421 C47.9811711,8.55252632 47.8601447,9.65713158 47.5441316,10.7338816 C46.8256579,13.1880263 45.1946842,15.2166579 42.9508947,16.44325 C40.7071053,17.6698421 38.1184868,17.9474342 35.6662632,17.2308816 C30.8876447,15.8313947 28.0223947,11.0095526 28.9598684,6.21364474 C25.3905526,7.10693421 21.9778026,8.62936842 18.9406184,10.6906579 C19.6898289,14.0774737 22.5233816,27.1271842 25.1946053,42.7040395 C27.6833289,57.2156711 28.397,62.4956842 24.6038816,65.3618947" id="Fill-4" fill="#F9FAFC"></path>
                                    <path d="M16.2703553,60.2816711 C17.8773158,61.6485 19.6177895,62.8472368 21.4668026,63.8615526 C23.7643816,62.8933421 24.7249079,61.8108289 24.2321579,56.0688026 C22.2928553,58.3173947 19.564,59.9848684 16.2703553,60.2816711" id="Fill-5" fill="#B6B6B8"></path>
                                    <path d="M36.2531447,27.6554737 C36.3549605,29.1827105 35.2004079,30.5034342 33.6731711,30.60525 C32.1459342,30.7070658 30.82425,29.5525132 30.7233947,28.0262368 C30.6206184,26.499 31.7751711,25.1782763 33.3024079,25.0755 C34.8296447,24.9736842 36.1503684,26.1282368 36.2531447,27.6554737" id="Fill-6" fill="#1B1725"></path>
                                    <path d="M51.3852763,26.6421184 C51.4870921,28.1693553 50.3325395,29.4900789 48.8053026,29.5918947 C47.2780658,29.6946711 45.9573421,28.5401184 45.8555263,27.0128816 C45.75275,25.4856447 46.9073026,24.1649211 48.4345395,24.0621447 C49.9617763,23.9603289 51.2825,25.1148816 51.3852763,26.6421184" id="Fill-7" fill="#1B1725"></path>
                                    <path d="M41.6320921,42.4053158 C36.9965921,42.4869605 33.0805263,39.9156316 32.4773158,36.3559211 C32.4360132,36.1090658 32.6281184,35.8804605 32.8778553,35.8593289 L34.8863158,35.6825921 C35.1139605,35.6633816 35.3012632,35.8257105 35.3531316,36.0475921 C35.86125,38.2327895 38.8878684,39.7763553 42.2343421,39.4901184 C45.5875395,39.1961974 48.2933421,37.1473947 48.4134079,34.9074474 C48.4249342,34.6788421 48.5824605,34.4867368 48.8101053,34.4665658 L50.8166447,34.2907895 C51.0663816,34.2696579 51.2969079,34.4617632 51.2988289,34.7124605 C51.3218816,38.544 47.4836184,41.9231316 42.4850395,42.3592105 C42.1978421,42.3861053 41.9135263,42.3995526 41.6320921,42.4053158" id="Fill-8" fill="#1B1725"></path>
                                </g>
                            </g>
                        </g>
                    </g>
                    <g id="two" transform="translate(97.960000, 65.280000)">
                        <g id="Group">
                            <path d="M7.68,0 L371.52,0 L371.52,8.8817842e-14 C388.486188,5.55632007e-14 402.24,13.7538125 402.24,30.72 L402.24,30.72 L402.24,30.72 C402.24,47.6861875 388.486188,61.44 371.52,61.44 L30.72,61.44 L30.72,61.44 C13.7538125,61.44 2.07775872e-15,47.6861875 0,30.72 L0,7.68 L0,7.68 C-5.19439681e-16,3.43845312 3.43845312,1.66733794e-15 7.68,8.8817842e-16 Z" id="Rectangle-2" fill="#F9FAFC"></path>
                            <text id="Let’s-find-something" font-family="TMSans-Bold, TM Sans" font-size="30.72" font-weight="bold" line-spacing="38.4" fill="#1B1725">
                                <tspan x="23.04" y="40.52">Let’s find something fun.</tspan>
                            </text>
                        </g>
                    </g>
                </g>
            </g>
        </g>
    </g>
</svg>