<svg version="1" xmlns="http://www.w3.org/2000/svg" width="533.333" height="533.333" viewBox="0 0 400.000000 400.000000"><path d="M0 200v200h400V0H0v200zm122-85.3c-.1 1-1.8 9.7-3.9 19.3l-3.8 17.5 15.5.3c12.5.2 15.3.5 14.9 1.6-.3.8-1.5 6.4-2.8 12.5l-2.2 11.1h-15.3c-13.7 0-15.3.2-15.8 1.7-.3 1-3.3 14.6-6.7 30.3-7.4 33.5-8.1 43-4 47.4 3.7 3.9 8.8 5.1 16.3 3.8 3.5-.5 7.1-1.3 8.1-1.7 2.3-.9 2.2.3-1.1 14.5l-2.7 11.4-6 1.3c-8.3 1.7-20.9 1.6-28-.2-7.5-1.9-14.5-6.6-17.9-11.9-7.7-11.8-7.5-23.8 1.3-64.6 3.4-15.7 6.4-29.3 6.7-30.3.5-1.6-.5-1.7-12.1-1.7-10.5 0-12.6-.2-12.2-1.4.3-.8 1.5-6.4 2.8-12.5l2.2-11 12.5-.3 12.6-.3 2.7-12.8c1.5-7 3-13.1 3.4-13.5.6-.6 33-11.9 34.8-12.1.4-.1.7.7.7 1.6zM245.3 151c12.7 2 23.1 9.7 26.3 19.3l1.7 5.1 1.5-2.4c.9-1.4 4.1-5 7.2-8.1 9.4-9.4 22-14.2 37.6-14.3 7.5 0 8.8.3 15.7 3.7 8.6 4.2 13.5 9.2 17.6 17.7 2.4 5 2.6 6.5 2.5 17 0 7.8-.8 14.6-2.2 21-1.2 5.2-5.3 23.9-9.2 41.5-3.8 17.6-7.2 32.6-7.5 33.3-.7 1.9-33.5 1.7-33.5-.2 0-.8 3.4-17.1 7.5-36.2 8.8-41.2 10.8-53.3 9.5-58.8-2-8.8-8-13-17.5-12.3-3.4.2-7.6 1.2-9.3 2.1-8 4.2-14.4 13.8-19.1 29-1.7 5.4-17.1 74.9-17.1 77.1 0 .3-7.6.5-17 .5-9.3 0-17-.2-17-.5s3.9-18.7 8.6-40.8c11.4-53 11.6-58 2.1-65.1-6.9-5.1-20.3-2.2-27.6 6.1-8.3 9.3-11.7 19.8-21.1 63.8-3.9 18.1-7.3 33.8-7.6 34.7-.5 1.6-2.2 1.8-17.5 1.8H143l.5-2.3c.4-1.7 15.8-77.3 25.6-125.5l1-5.2h31.2l-.7 5.2c-.3 2.9-.9 7.1-1.3 9.3l-.6 4 4.6-5.1c9.1-10 18.4-14.3 35.2-16.3.6 0 3.6.3 6.8.9z"/></svg>