<?xml version="1.0" encoding="UTF-8"?>
<svg width="44px" height="44px" viewBox="0 0 44 44" version="1.1" xmlns="http://www.w3.org/2000/svg" xmlns:xlink="http://www.w3.org/1999/xlink">
    <!-- Generator: Sketch 43.2 (39069) - http://www.bohemiancoding.com/sketch -->
    <title>ic_alexa_dark_filled</title>
    <desc>Created with Sketch.</desc>
    <defs></defs>
    <g id="Symbols" stroke="none" stroke-width="1" fill="none" fill-rule="evenodd">
        <g id="ic_alexa_dark_filled" fill="#FFFFFF">
            <g id="Combined-Shape">
                <path d="M22,44 C34.1502645,44 44,34.1502645 44,22 C44,9.8497355 34.1502645,0 22,0 C9.8497355,0 0,9.8497355 0,22 C0,34.1502645 9.8497355,44 22,44 Z M22,12 C16.4771525,12 12,16.4771525 12,22 C12,27.5228475 16.4771525,32 22,32 C27.5228475,32 32,27.5228475 32,22 C31.9888745,16.4817674 27.5182326,12.0111255 22,12 L22,12 Z M20.4288869,31.8786653 L20.4288869,29.8564206 C20.4224674,29.1523078 19.9968457,28.519842 19.346986,28.2487361 C16.1939375,26.9207645 14.5113051,23.4634967 15.4116003,20.1627859 C16.3118956,16.8620751 19.5168978,14.7379488 22.9075452,15.1948224 C26.2981926,15.6516961 28.8266643,18.548381 28.8212024,21.9696663 C28.8110912,26.4186047 25.3934976,30.5945399 20.4288869,31.8786653 L20.4288869,31.8786653 Z"></path>
            </g>
        </g>
    </g>
</svg>