<svg xmlns="http://www.w3.org/2000/svg" width="44" height="44" viewBox="0 0 44 44">
    <g fill="none" fill-rule="evenodd">
        <circle cx="22" cy="22" r="21.375" stroke="#768692" stroke-width="1.25"/>
        <path fill="#768692" fill-rule="nonzero" d="M30.014 17.11H33l-4.79 12.547H25.432L20.777 17.11H23.8l3.094 9.784h.05l3.07-9.784zm-16.033 2.052H12V17.11h1.98v-2.264L16.694 14v3.11h2.97v2.052h-2.97v6.565c0 .786.433 1.837 1.41 1.909.978.071 1.56-.142 1.56-.142l.026 2.163s-.834.302-2.088.302c-1.255 0-2.058-.333-2.783-1.121-.726-.789-.837-2.358-.837-3.376v-6.3z"/>
    </g>
</svg>
