<svg xmlns="http://www.w3.org/2000/svg" width="21" height="19" viewBox="0 0 21 19">
    <path fill="#768692" fill-rule="nonzero" d="M4.75.079a5.7 5.7 0 1 1-3.515 9.164C.156 7.902-.25 6.06.15 4.387.638 2.206 2.535.424 4.75.079zm14.29 3.8c.833-.298 1.809.359 1.843 1.24.088.798-.617 1.557-1.423 1.523-.799.02-1.497-.738-1.402-1.53.04-.563.447-1.07.982-1.233zm-4.605 1.937a2.846 2.846 0 0 1 2.418.42 2.86 2.86 0 0 1 1.198 2.492c-.04.9-.548 1.754-1.307 2.235-1.05.691-2.553.57-3.467-.305a2.86 2.86 0 0 1-.8-2.898 2.853 2.853 0 0 1 1.958-1.944zm.122 6.597c1.788-.413 3.718.941 3.941 2.763.326 1.795-1.097 3.65-2.919 3.8-1.74.244-3.494-1.131-3.67-2.886-.258-1.666.982-3.38 2.648-3.677z"/>
</svg>
