<?xml version="1.0" encoding="UTF-8"?>
<svg width="20px" height="26px" viewBox="0 0 20 26" version="1.1" xmlns="http://www.w3.org/2000/svg" xmlns:xlink="http://www.w3.org/1999/xlink">
    <!-- Generator: Sketch 46.2 (44496) - http://www.bohemiancoding.com/sketch -->
    <title>ic_shortlist_light_small</title>
    <desc>Created with Sketch.</desc>
    <defs></defs>
    <g id="Symbols" stroke="none" stroke-width="1" fill="none" fill-rule="evenodd">
        <g id="ic_shortlist_light_small" fill-rule="nonzero" fill="#768692">
            <path d="M15.9781478,16.7767968 C16.394398,16.288782 16.6058408,15.658843 16.5733908,15.0022917 C16.5407797,14.3459167 16.2682235,13.7431081 15.8060692,13.3040264 L13.9845874,11.5738497 L13.9774856,11.4381206 L14.7978314,10.4770147 L14.9409765,10.4695282 L16.7622787,12.1997019 C17.5048527,12.9050586 17.9425354,13.8731698 17.9947593,14.9247586 C18.046971,15.9762914 17.707658,16.987075 17.0392457,17.7702808 L11.2373769,24.5683696 C10.5678482,25.3526713 9.6477727,25.8157234 8.6479189,25.8709896 C8.58217405,25.8747287 8.51520213,25.8765453 8.44688124,25.8765453 C7.51765002,25.8765453 6.63525765,25.5188789 5.94251617,24.8607426 L2.10394666,21.2144947 L2.09684571,21.0787664 L5.17874275,17.4680599 L5.32188857,17.4605743 L6.23271764,18.3258487 L6.23981774,18.4615709 L4.03923158,21.0399468 L6.89872081,23.7565996 C7.35892865,24.1936716 7.95539732,24.4161171 8.57247872,24.3823699 C9.19126971,24.3481516 9.76061559,24.0616284 10.1761231,23.5748615 C10.5924976,23.0868998 10.8039763,22.4568072 10.7713533,21.8003729 C10.738736,21.1440528 10.466095,20.5411079 10.0038519,20.1021031 L3.23808282,13.6748929 C2.49529586,12.9695057 2.05746257,12.0013762 2.00524065,10.9498271 C1.95302904,9.89829513 2.29234199,8.88751154 2.96075525,8.1043046 L8.76278849,1.30622991 C10.1451909,-0.31371385 12.5214612,-0.445075556 14.0576619,1.01384554 L17.896055,4.66009341 L17.9031572,4.79581675 L15.3422882,7.79636521 L15.1991242,7.80383964 L14.7437088,7.37101558 C14.5392168,7.17666315 14.2821833,7.08005485 14.0081576,7.09584485 C13.7364259,7.11090631 13.4862493,7.23681985 13.3034864,7.45120839 C13.1194406,7.66672226 13.0259515,7.94510017 13.0404089,8.23558314 C13.0546794,8.52573977 13.1750768,8.7919912 13.3791138,8.98608187 L13.8347047,9.41871909 L13.8418191,9.554454 L11.2809501,12.5550024 L11.1378031,12.5624931 L7.29939033,8.91622655 C6.83822603,8.4779069 6.24371324,8.25574257 5.62566011,8.29048251 C5.00685815,8.32470143 4.43767637,8.61104863 4.02185228,9.09778973 C3.60556817,9.58584433 3.39416793,10.2157887 3.42678559,10.8722948 C3.45939933,11.528722 3.73198884,12.1315061 4.19428687,12.5705632 L10.9600659,18.9977828 C11.592297,19.5983462 12.0028915,20.3929848 12.1417866,21.2717696 L15.9781478,16.7767968 Z M13.1014523,2.11816997 C12.1501126,1.2145742 10.680931,1.29578615 9.82386221,2.29974236 L5.9765023,6.80780188 C6.8231561,6.86081149 7.62226277,7.21030568 8.25562353,7.81192461 L11.1074999,10.5209822 L11.9682488,9.51278374 C11.7599124,9.15146018 11.6400195,8.74153053 11.6188603,8.31304076 C11.5849905,7.62736462 11.8062469,6.96832599 12.2422382,6.45750766 C12.678821,5.9457597 13.2797639,5.64334514 13.9330697,5.60703908 C14.3379891,5.58406032 14.7363168,5.66614696 15.0983851,5.84513243 L15.9609382,4.8346377 L13.1014523,2.11816997 Z" id="Fill-4"></path>
        </g>
    </g>
</svg>