<?xml version="1.0" encoding="UTF-8"?>
<svg width="44px" height="44px" viewBox="0 0 44 44" version="1.1" xmlns="http://www.w3.org/2000/svg" xmlns:xlink="http://www.w3.org/1999/xlink">
    <!-- Generator: Sketch 46.2 (44496) - http://www.bohemiancoding.com/sketch -->
    <title>ic_score_dark_filled</title>
    <desc>Created with Sketch.</desc>
    <defs></defs>
    <g id="Symbols" stroke="none" stroke-width="1" fill="none" fill-rule="evenodd">
        <g id="ic_score_dark_filled" fill="#FFFFFF">
            <g id="ic_score_light">
                <path d="M22,44 C9.8497355,44 0,34.1502645 0,22 C0,9.8497355 9.8497355,0 22,0 C34.1502645,0 44,9.8497355 44,22 C44,34.1502645 34.1502645,44 22,44 Z M27.666393,14.5323881 C25.9971866,14.5323881 24.4639452,15.1110484 23.2346157,16.0764743 C24.5556147,17.6827161 25.3536185,19.753637 25.3536185,22.0126006 C25.3536185,24.2717392 24.5556147,26.3428352 23.2346157,27.9489019 C24.4639452,28.9143278 25.9971866,29.4929881 27.666393,29.4929881 C31.7017338,29.4929881 34.9731047,26.1439372 34.9731047,22.0126006 C34.9731047,17.881264 31.7017338,14.5323881 27.666393,14.5323881 Z M18.8529488,24.1633608 C18.251624,24.900124 17.3479266,25.3695304 16.3364833,25.3695304 C14.5256679,25.3695304 13.0575872,23.8665895 13.0575872,22.0126006 C13.0575872,20.1587867 14.5256679,18.6558458 16.3364833,18.6558458 C17.3477556,18.6558458 18.251453,19.1252522 18.8529488,19.8620154 L21.9442302,17.219963 C20.6039053,15.5781787 18.590083,14.5323881 16.3364833,14.5323881 C12.3009715,14.5323881 9.02960052,17.881264 9.02960052,22.0126006 C9.02960052,26.1439372 12.3009715,29.4929881 16.3364833,29.4929881 C18.590083,29.4929881 20.6040763,28.4471976 21.9442302,26.8052381 L18.8529488,24.1633608 Z" id="Combined-Shape"></path>
            </g>
        </g>
    </g>
</svg>