<svg xmlns="http://www.w3.org/2000/svg" xmlns:xlink="http://www.w3.org/1999/xlink" width="149" height="30" viewBox="0 0 149 30">
    <defs>
        <path id="a" d="M.025.355h148.683v19.62H.025z"/>
    </defs>
    <g fill="none" fill-rule="evenodd">
        <g transform="translate(0 2)">
            <mask id="b" fill="#fff">
                <use xlink:href="#a"/>
            </mask>
            <path fill="#FFF" d="M88.046 17.475c2.618 0 3.43-1.778 3.978-3.917h-1.23c-1.7 0-4.527.284-4.527 2.525 0 .928.89 1.392 1.78 1.392zm3.43.18h-.053C90.219 19.15 89.015 20 87.078 20c-2.433 0-4.16-1.34-4.16-3.788 0-4.38 4.972-4.714 8.27-4.714h1.23c.104-.362.104-.748.104-1.135 0-1.339-1.465-1.726-2.695-1.726-1.545 0-3.037.387-4.424 1.03l.497-2.756c1.492-.514 3.01-.798 4.581-.798 2.696 0 5.235.979 5.235 4.096 0 1.778-1.335 6.983-1.65 9.482H91.11l.367-2.036zM.55 6.41h2.539l.602-2.731L7.46 2.467 6.596 6.41h3.141l-.55 2.525H6.046l-1.282 5.797c-.079.309-.157.773-.157 1.288 0 .799.55 1.288 1.335 1.288.628 0 1.256-.129 1.701-.31l-.602 2.68c-.602.13-1.282.31-1.884.31-2.382 0-4.058-.928-4.058-3.479 0-1.03.21-2.035.445-3.09l.995-4.484H0L.55 6.41M12.46.69h3.507l-.733 3.298h-3.507L12.46.69zm-1.283 5.72h3.508l-2.88 13.268H8.299l2.88-13.268zM25.277 9.45c-.681-.438-1.597-.67-2.566-.67-2.8 0-4.37 2.577-4.37 5.076 0 1.725.575 3.452 2.983 3.452.864 0 1.937-.232 2.853-.67l-.392 2.732c-1.074.515-2.225.618-3.377.618-3.481 0-5.732-2.293-5.732-5.72 0-4.638 3.115-8.167 7.957-8.167 1.309 0 2.565.232 3.508.515l-.864 2.834M29.124.355h3.507l-2.33 10.873h.053L35.25 6.41h4.554l-6.465 6.055 4.057 7.213h-3.953l-3.481-7.033h-.053l-1.518 7.033h-3.428L29.124.355M52.446 6.41h2.54l.601-2.731 3.77-1.212-.864 3.943h3.14l-.549 2.525h-3.141l-1.283 5.797a5.42 5.42 0 0 0-.157 1.288c0 .799.55 1.288 1.336 1.288.628 0 1.256-.129 1.7-.31l-.602 2.68c-.601.13-1.282.31-1.884.31-2.382 0-4.057-.928-4.057-3.479 0-1.03.21-2.035.445-3.09l.995-4.484h-2.54l.55-2.525" mask="url(#b)"/>
            <path fill="#FFF" d="M51.273 11.15c0-3.375-2.199-5.049-5.522-5.049-4.424 0-7.67 3.968-7.67 8.09 0 3.942 2.618 5.797 6.492 5.797 1.439 0 2.931-.335 4.292-.747l.446-2.732c-1.31.593-2.697.954-4.136.954-2.244 0-3.555-.785-3.723-2.87h-.003c-.007-.122-.018-.24-.018-.367l.002-.074-.001-.039h.002a7.056 7.056 0 0 1 .57-2.632c.674-1.688 1.627-2.855 3.694-2.855 1.466 0 2.225.798 2.225 2.216 0 .309-.027.592-.079.901h-4.8c-.31 1.043-.365 1.742-.371 2.37h8.26c.209-.979.34-1.958.34-2.962M63.147 7.878c.105-.515.21-1.056.288-1.468h3.272l-.314 1.777h.052c.942-1.365 2.487-2.086 4.135-2.086 1.597 0 3.246.927 3.43 2.525h.052C74.952 6.9 76.915 6.1 78.799 6.1c2.016 0 3.743 1.623 3.743 3.633 0 1.185-.313 2.525-.601 3.607l-1.414 6.337h-3.508l1.414-6.467c.183-.798.445-2.035.445-2.834 0-.978-.759-1.597-1.649-1.597-2.435 0-3.037 2.783-3.481 4.587l-1.388 6.311h-3.507l1.414-6.467c.183-.798.445-2.035.445-2.834 0-.978-.76-1.597-1.65-1.597-2.382 0-3.036 2.808-3.48 4.587l-1.388 6.311h-3.507l2.46-11.8M106.135 9.111c-.377-.201-1.346-.485-2.34-.485-1.047 0-2.356.284-2.356 1.339 0 1.675 4.554 2.294 4.554 5.54 0 3.452-3.062 4.483-6.072 4.483-1.413 0-2.827-.206-4.11-.798l.76-2.758c.994.541 1.989 1.03 3.35 1.03 1.178 0 2.408-.386 2.408-1.467 0-2.139-4.554-2.346-4.554-5.669 0-3.117 3.062-4.225 5.837-4.225 1.282 0 2.59.232 3.282.408l-.76 2.602M108.375 6.41h2.539l.602-2.731 3.77-1.212-.865 3.943h3.141l-.55 2.525h-3.14l-1.283 5.797c-.078.309-.157.773-.157 1.288 0 .799.55 1.288 1.335 1.288.628 0 1.256-.129 1.701-.31l-.601 2.68c-.603.13-1.283.31-1.885.31-2.382 0-4.057-.928-4.057-3.479 0-1.03.21-2.035.444-3.09l.996-4.484h-2.54l.55-2.525M132.155 8.188c.105-.567.21-1.16.314-1.778h3.35l-.47 2.5h.052c.628-1.444 2.355-2.809 3.978-2.809.446 0 .917.025 1.335.129l-.732 3.375a4.51 4.51 0 0 0-1.335-.206c-2.487 0-3.691 2.19-4.136 4.328l-1.256 5.951h-3.508l2.408-11.49M129.721 11.15c0-3.375-2.199-5.049-5.523-5.049-4.423 0-7.67 3.968-7.67 8.09 0 3.942 2.618 5.797 6.492 5.797 1.44 0 2.932-.335 4.293-.747l.445-2.732c-1.31.593-2.696.954-4.135.954-2.245 0-3.555-.785-3.724-2.87h-.003c-.006-.122-.017-.24-.017-.367 0-.025 0-.05.002-.074l-.002-.039h.003a7.04 7.04 0 0 1 .57-2.632c.673-1.688 1.626-2.855 3.693-2.855 1.466 0 2.225.798 2.225 2.216 0 .309-.026.592-.078.901h-4.8c-.31 1.043-.366 1.742-.372 2.37h8.26c.21-.979.341-1.958.341-2.962" mask="url(#b)"/>
        </g>
        <path fill="#FFF" d="M145.507 10.58h.665c.43 0 .71-.09.71-.537 0-.391-.35-.506-.71-.506h-.665v1.043zm-.56-1.483h1.315c.79 0 1.178.319 1.178.971 0 .553-.349.953-.887.953l.978 1.524h-.595l-.96-1.524h-.469v1.524h-.56V9.097zm1.13 4.23c1.346 0 2.362-1.093 2.362-2.501 0-1.41-1.016-2.503-2.362-2.503-1.364 0-2.383 1.093-2.383 2.503 0 1.408 1.019 2.5 2.383 2.5zm-.01-5.445a2.942 2.942 0 0 1 0 5.883 2.941 2.941 0 0 1 0-5.883z"/>
    </g>
</svg>
