<svg xmlns="http://www.w3.org/2000/svg" width="190" height="42" viewBox="0 0 190 42">
    <path fill="#009CDE" fill-rule="evenodd" d="M.662 13.714h2.832l.662-3.272L8.348 9l-.957 4.714h3.494l-.625 3H6.767L5.332 23.65c-.073.39-.183.935-.183 1.559 0 .974.624 1.558 1.507 1.558.699 0 1.398-.156 1.875-.35L7.87 29.61c-.662.156-1.434.39-2.097.39-2.647 0-4.523-1.09-4.523-4.169 0-1.247.221-2.454.478-3.701l1.104-5.377H0l.662-3.039zm13.143 2.353c.117-.612.234-1.225.35-1.723h3.815l-.39 2.106h.078c1.129-1.608 2.92-2.45 4.866-2.45 1.868 0 3.815 1.11 4.048 2.986h.078C27.7 14.956 29.997 14 32.216 14c2.374 0 4.399 1.914 4.399 4.287 0 1.378-.35 2.947-.701 4.249L34.24 30h-4.126l1.674-7.617c.195-.957.506-2.412.506-3.33 0-1.149-.895-1.876-1.947-1.876-2.88 0-3.58 3.292-4.087 5.397L24.626 30H20.5l1.673-7.617c.234-.957.546-2.412.546-3.33 0-1.149-.896-1.876-1.947-1.876-2.802 0-3.58 3.292-4.087 5.397L15.051 30h-4.166l2.92-13.933zM38.594 42l9.91-42h.975l-9.951 42h-.934zm141.223-28.014h1.154l6.18 11.324 1.708 3.16h.048l-.096-2.322a55.738 55.738 0 0 1-.048-2.32v-9.842h1.058V30h-1.155l-6.18-11.324-1.707-3.159h-.048l.096 2.284c.032.746.048 1.507.048 2.285V30h-1.058V13.986zM169.4 29.271c.705 0 1.35-.174 1.936-.522.585-.349 1.086-.843 1.503-1.483.417-.64.741-1.41.974-2.308.232-.9.348-1.908.348-3.026 0-1.101-.116-2.097-.348-2.988-.233-.892-.557-1.649-.974-2.273-.417-.623-.918-1.105-1.503-1.445a3.782 3.782 0 0 0-1.936-.51c-.705 0-1.35.17-1.936.51-.585.34-1.086.822-1.503 1.445-.416.624-.741 1.381-.973 2.273-.233.89-.35 1.887-.35 2.988 0 1.118.117 2.127.35 3.026.232.899.557 1.668.973 2.308.417.64.918 1.134 1.503 1.483.585.348 1.23.522 1.936.522zm0 1.02c-.866 0-1.66-.198-2.38-.595-.722-.397-1.347-.96-1.876-1.689-.53-.729-.938-1.607-1.227-2.636-.288-1.029-.432-2.175-.432-3.439 0-1.263.144-2.401.432-3.414.289-1.012.698-1.879 1.227-2.6.529-.72 1.154-1.272 1.875-1.652a5.021 5.021 0 0 1 2.381-.571c.866 0 1.66.19 2.38.57.722.381 1.347.932 1.876 1.653.53.721.938 1.588 1.227 2.6.288 1.013.433 2.15.433 3.414 0 1.264-.145 2.41-.433 3.439-.289 1.029-.698 1.907-1.227 2.636-.529.73-1.154 1.292-1.875 1.69a4.857 4.857 0 0 1-2.38.595zm-18.204-1.263h4.088v-14.07h-4.088v-.972h9.282v.972h-4.088v14.07h4.088V30h-9.282v-.972zm-9.598-14.07h-5.506v-.972h12.12v.972h-5.508V30h-1.106V14.958zm-8.894 9.55h-6.276L124.552 30h-1.106l5.58-16.014h1.105L135.711 30h-1.18l-1.827-5.492zm-.312-.947l-1.01-2.99c-.32-.955-.626-1.87-.914-2.745a59.05 59.05 0 0 1-.842-2.795h-.096c-.272.988-.553 1.92-.842 2.795-.288.875-.593 1.79-.913 2.746l-1.01 2.989h5.627zm-22.049-9.575h1.179l2.933 9.356c.145.486.285.947.421 1.385.136.437.269.87.397 1.3a87.752 87.752 0 0 0 .842 2.685h.096c.32-.972.605-1.867.853-2.685.249-.818.525-1.713.83-2.685l2.934-9.356h1.106L116.764 30h-1.203l-5.218-16.014zm-8.757 15.285c.706 0 1.35-.174 1.936-.522.585-.349 1.086-.843 1.503-1.483.417-.64.741-1.41.974-2.308.232-.9.348-1.908.348-3.026 0-1.101-.116-2.097-.348-2.988-.233-.892-.557-1.649-.974-2.273-.417-.623-.918-1.105-1.503-1.445a3.782 3.782 0 0 0-1.936-.51c-.705 0-1.35.17-1.936.51-.585.34-1.086.822-1.503 1.445-.416.624-.741 1.381-.973 2.273-.233.89-.35 1.887-.35 2.988 0 1.118.117 2.127.35 3.026.232.899.557 1.668.973 2.308.417.64.918 1.134 1.503 1.483.585.348 1.23.522 1.936.522zm0 1.02c-.866 0-1.66-.198-2.38-.595-.722-.397-1.347-.96-1.876-1.689-.53-.729-.938-1.607-1.227-2.636-.288-1.029-.432-2.175-.432-3.439 0-1.263.144-2.401.432-3.414.289-1.012.698-1.879 1.227-2.6.529-.72 1.154-1.272 1.875-1.652a5.021 5.021 0 0 1 2.381-.571c.866 0 1.66.19 2.38.57.722.381 1.347.932 1.876 1.653.53.721.938 1.588 1.227 2.6.288 1.013.433 2.15.433 3.414 0 1.264-.145 2.41-.433 3.439-.289 1.029-.698 1.907-1.227 2.636-.529.73-1.154 1.292-1.875 1.69a4.857 4.857 0 0 1-2.38.595zM81.29 13.987h1.154l6.18 11.324 1.707 3.16h.048l-.096-2.322a55.739 55.739 0 0 1-.048-2.32v-9.842h1.058V30h-1.154l-6.18-11.324-1.707-3.159h-.049l.097 2.284c.032.746.048 1.507.048 2.285V30h-1.058V13.986zm-15.665 0h1.154l6.18 11.324 1.707 3.16h.048l-.096-2.322a55.738 55.738 0 0 1-.048-2.32v-9.842h1.058V30h-1.154l-6.18-11.324-1.708-3.159h-.048c.032.778.064 1.54.097 2.284.032.746.048 1.507.048 2.285V30h-1.058V13.986zM52.052 29.028h4.088v-14.07h-4.088v-.972h9.282v.972h-4.088v14.07h4.088V30h-9.282v-.972z"/>
</svg>
